<svg xmlns="http://www.w3.org/2000/svg" width="1200" height="630" viewBox="0 0 1200 630" role="img" aria-label="Zyvora social preview"><rect width="1200" height="630" fill="#F8FAFC"/><circle cx="1010" cy="90" r="170" fill="#FFF7DF"/><circle cx="180" cy="540" r="140" fill="#EEF2F7"/><rect x="130" y="110" width="940" height="410" rx="36" fill="#FFFFFF" stroke="#E2E8F0" stroke-width="2"/><rect x="176" y="158" width="72" height="72" rx="22" fill="#0F172A"/><path d="M195 180h35v8l-22.5 24H231v10h-37v-8l22.2-24H195v-10z" fill="#FFFFFF"/><path d="M222 170h14v14" fill="none" stroke="#D4A017" stroke-width="6" stroke-linecap="round" stroke-linejoin="round"/><text x="176" y="300" fill="#0F172A" font-family="Manrope, Arial, sans-serif" font-size="84" font-weight="800">Zyvora</text><text x="176" y="372" fill="#334155" font-family="Manrope, Arial, sans-serif" font-size="34" font-weight="600">Premium digital product growth playbook</text><rect x="176" y="420" width="212" height="54" rx="16" fill="#0F172A"/><text x="218" y="456" fill="#FFFFFF" font-family="Manrope, Arial, sans-serif" font-size="20" font-weight="800">Lifetime access</text><rect x="710" y="170" width="270" height="300" rx="24" fill="#0F172A"/><rect x="744" y="214" width="130" height="14" rx="7" fill="#D4A017"/><rect x="744" y="254" width="184" height="12" rx="6" fill="#FFFFFF" opacity=".75"/><rect x="744" y="284" width="154" height="12" rx="6" fill="#FFFFFF" opacity=".45"/><rect x="744" y="340" width="38" height="76" rx="10" fill="#D4A017"/><rect x="798" y="312" width="38" height="104" rx="10" fill="#F9D976"/><rect x="852" y="274" width="38" height="142" rx="10" fill="#D4A017"/><rect x="906" y="236" width="38" height="180" rx="10" fill="#F9D976"/></svg>
